<svg width="50" height="49" viewBox="0 0 50 49" fill="none" xmlns="http://www.w3.org/2000/svg">
<path d="M38.7743 20.4121C38.7016 16.0821 35.2539 12.2231 30.9959 12.2231C28.5335 12.2231 26.3638 13.5359 24.9352 15.4627C23.5066 13.5359 21.3369 12.2231 18.8746 12.2231C14.6165 12.2231 11.1689 16.0821 11.0961 20.4121H11.0823C11.0823 20.4386 11.0875 20.4633 11.0875 20.4898C11.0875 20.5092 11.0823 20.5286 11.0823 20.5498C11.0823 20.6715 11.1117 20.7633 11.1169 20.8797C11.4979 31.9148 24.8261 36.4389 24.8261 36.4389C24.8261 36.4389 38.3501 31.9201 38.7501 20.8974C38.757 20.7738 38.7882 20.6768 38.7882 20.5498C38.7882 20.5286 38.783 20.5092 38.783 20.4898C38.783 20.4615 38.7882 20.4386 38.7882 20.4121H38.7743Z" fill="black"/>
<mask id="mask0_270_51" style="mask-type:alpha" maskUnits="userSpaceOnUse" x="11" y="12" width="28" height="25">
<path d="M38.7743 20.4121C38.7016 16.0821 35.2539 12.2231 30.9959 12.2231C28.5335 12.2231 26.3638 13.5359 24.9352 15.4627C23.5066 13.5359 21.3369 12.2231 18.8746 12.2231C14.6165 12.2231 11.1689 16.0821 11.0961 20.4121H11.0823C11.0823 20.4386 11.0875 20.4633 11.0875 20.4898C11.0875 20.5092 11.0823 20.5286 11.0823 20.5498C11.0823 20.6715 11.1117 20.7633 11.1169 20.8797C11.4979 31.9148 24.8261 36.4389 24.8261 36.4389C24.8261 36.4389 38.3501 31.9201 38.7501 20.8974C38.757 20.7738 38.7882 20.6768 38.7882 20.5498C38.7882 20.5286 38.783 20.5092 38.783 20.4898C38.783 20.4615 38.7882 20.4386 38.7882 20.4121H38.7743Z" fill="white"/>
</mask>
<g mask="url(#mask0_270_51)">
<rect x="-472.385" y="-248.769" width="831.177" height="807.193" fill="white"/>
</g>
</svg>
