<svg width="488" height="219" viewBox="0 0 488 219" fill="none" xmlns="http://www.w3.org/2000/svg">
<g filter="url(#filter0_ddif_56_170)">
<path d="M158.663 111.62C173.203 102.518 171.39 77.16 146.372 79.1471H124.406L118.687 111.62H116.748L114.024 127.13H116.932L114.024 143.609H127.886L130.794 127.13H127.886L129.437 118.406C133.576 118.706 141.311 116.709 142.038 122.865L143.134 127.13H146.042L150.278 143.609H165.206C164.081 141.205 162.734 133.915 160.941 127.13H158.033C156.336 120.742 154.233 114.819 151.538 113.947C153.378 113.422 155.134 112.638 156.753 111.62H158.663ZM153.254 96.8862C153.399 108.722 142.135 109.052 133.091 108.518L136.387 90.1008C142.494 90.314 153.806 88.3947 153.254 96.8862Z" fill="url(#paint0_linear_56_170)"/>
<path d="M158.663 111.62C173.203 102.518 171.39 77.16 146.372 79.1471H124.406L118.687 111.62H116.748L114.024 127.13H116.932L114.024 143.609H127.886L130.794 127.13H127.886L129.437 118.406C133.576 118.706 141.311 116.709 142.038 122.865L143.134 127.13H146.042L150.278 143.609H165.206C164.081 141.205 162.734 133.915 160.941 127.13H158.033C156.336 120.742 154.233 114.819 151.538 113.947C153.378 113.422 155.134 112.638 156.753 111.62H158.663ZM153.254 96.8862C153.399 108.722 142.135 109.052 133.091 108.518L136.387 90.1008C142.494 90.314 153.806 88.3947 153.254 96.8862Z" fill="white" fill-opacity="0.8"/>
<path d="M232.159 107.743L239.429 100.473C230.104 88.7631 200.335 90.5564 201.14 109.682C201.114 110.328 201.134 110.976 201.198 111.62H199.259C200.228 123.059 213.063 121.576 217.541 127.13H220.449C221.113 127.947 221.571 128.911 221.787 129.941C220.817 139.46 205.385 133.683 201.13 130.426L195.992 139.634C205.686 148.136 236.705 147.787 235.455 128.293C235.455 127.886 235.455 127.508 235.455 127.13H232.547C232.227 116.312 220.158 116.128 214.992 111.62H216.93C215.76 110.668 214.972 109.326 214.711 107.84C215.796 99.5907 227.293 102.731 232.159 107.743Z" fill="url(#paint1_linear_56_170)"/>
<path d="M232.159 107.743L239.429 100.473C230.104 88.7631 200.335 90.5564 201.14 109.682C201.114 110.328 201.134 110.976 201.198 111.62H199.259C200.228 123.059 213.063 121.576 217.541 127.13H220.449C221.113 127.947 221.571 128.911 221.787 129.941C220.817 139.46 205.385 133.683 201.13 130.426L195.992 139.634C205.686 148.136 236.705 147.787 235.455 128.293C235.455 127.886 235.455 127.508 235.455 127.13H232.547C232.227 116.312 220.158 116.128 214.992 111.62H216.93C215.76 110.668 214.972 109.326 214.711 107.84C215.796 99.5907 227.293 102.731 232.159 107.743Z" fill="white" fill-opacity="0.8"/>
<path d="M261.336 97.7587L265.214 76.2294H251.643L245.381 111.62H243.442L240.699 127.13H243.607L240.699 143.609H254.27L257.178 127.13H254.27L256.926 111.911C256.939 111.812 256.962 111.715 256.994 111.62H258.932C259.43 109.347 260.68 107.307 262.479 105.83C264.277 104.352 266.521 103.524 268.849 103.478C274.025 103.303 273.802 107.84 273.22 111.62H271.282C271.282 111.853 271.204 112.076 271.175 112.299L268.558 127.13H271.466L268.558 143.609H282.129C282.39 141.67 283.709 134.662 285.037 127.13H282.129C283.098 121.682 284.125 115.953 284.785 111.62H286.723C287.135 109.413 287.368 107.176 287.421 104.932C288.342 91.1671 269.547 90.1202 261.336 97.7587Z" fill="url(#paint2_linear_56_170)"/>
<path d="M261.336 97.7587L265.214 76.2294H251.643L245.381 111.62H243.442L240.699 127.13H243.607L240.699 143.609H254.27L257.178 127.13H254.27L256.926 111.911C256.939 111.812 256.962 111.715 256.994 111.62H258.932C259.43 109.347 260.68 107.307 262.479 105.83C264.277 104.352 266.521 103.524 268.849 103.478C274.025 103.303 273.802 107.84 273.22 111.62H271.282C271.282 111.853 271.204 112.076 271.175 112.299L268.558 127.13H271.466L268.558 143.609H282.129C282.39 141.67 283.709 134.662 285.037 127.13H282.129C283.098 121.682 284.125 115.953 284.785 111.62H286.723C287.135 109.413 287.368 107.176 287.421 104.932C288.342 91.1671 269.547 90.1202 261.336 97.7587Z" fill="white" fill-opacity="0.8"/>
<path d="M297.929 111.62H295.99L293.237 127.13H296.145L293.218 143.609H306.789L309.716 127.13H306.808L309.561 111.62H311.5L314.544 94.4532H300.973L297.929 111.62Z" fill="url(#paint3_linear_56_170)"/>
<path d="M297.929 111.62H295.99L293.237 127.13H296.145L293.218 143.609H306.789L309.716 127.13H306.808L309.561 111.62H311.5L314.544 94.4532H300.973L297.929 111.62Z" fill="white" fill-opacity="0.8"/>
<path d="M302.524 81.5706C302.582 91.264 318.605 87.9198 317.752 79.3411C317.578 69.4537 301.671 73.0403 302.524 81.5706Z" fill="url(#paint4_linear_56_170)"/>
<path d="M302.524 81.5706C302.582 91.264 318.605 87.9198 317.752 79.3411C317.578 69.4537 301.671 73.0403 302.524 81.5706Z" fill="white" fill-opacity="0.8"/>
<path d="M176.76 111.62H174.822L172.069 127.13H174.977L172.049 143.609H185.62L188.548 127.13H185.64L188.393 111.62H190.331L193.375 94.4532H179.804L176.76 111.62Z" fill="url(#paint5_linear_56_170)"/>
<path d="M176.76 111.62H174.822L172.069 127.13H174.977L172.049 143.609H185.62L188.548 127.13H185.64L188.393 111.62H190.331L193.375 94.4532H179.804L176.76 111.62Z" fill="white" fill-opacity="0.8"/>
<path d="M181.355 81.5706C181.414 91.264 197.437 87.9198 196.584 79.3411C196.409 69.4537 180.502 73.0403 181.355 81.5706Z" fill="url(#paint6_linear_56_170)"/>
<path d="M181.355 81.5706C181.414 91.264 197.437 87.9198 196.584 79.3411C196.409 69.4537 180.502 73.0403 181.355 81.5706Z" fill="white" fill-opacity="0.8"/>
<path d="M351.679 93.0089C348.659 92.9893 345.67 93.6298 342.922 94.8856C340.175 96.1413 337.735 97.982 335.773 100.279L335.869 94.4629H324.528C324.673 96.7699 323.714 103.662 322.425 111.62H320.486C319.672 116.661 318.731 122.118 317.84 127.13H320.748C319.42 134.652 318.237 141.147 317.84 143.609H331.217L334.125 127.13H331.217L333.892 112.105C333.892 111.94 333.96 111.785 333.999 111.62H335.937C336.428 109.332 337.683 107.279 339.496 105.799C341.309 104.319 343.572 103.501 345.912 103.478C350.943 103.371 350.759 107.927 350.245 111.62H348.306C348.248 111.989 348.199 112.347 348.151 112.687L345.611 127.13H348.519L345.611 143.609H359.095C359.095 143.609 360.559 135.379 362.003 127.13H359.095C360.249 120.664 361.402 114.189 361.858 111.62H363.796L364.01 110.457C366.355 101.054 362.42 92.437 351.679 93.0089Z" fill="url(#paint7_linear_56_170)"/>
<path d="M351.679 93.0089C348.659 92.9893 345.67 93.6298 342.922 94.8856C340.175 96.1413 337.735 97.982 335.773 100.279L335.869 94.4629H324.528C324.673 96.7699 323.714 103.662 322.425 111.62H320.486C319.672 116.661 318.731 122.118 317.84 127.13H320.748C319.42 134.652 318.237 141.147 317.84 143.609H331.217L334.125 127.13H331.217L333.892 112.105C333.892 111.94 333.96 111.785 333.999 111.62H335.937C336.428 109.332 337.683 107.279 339.496 105.799C341.309 104.319 343.572 103.501 345.912 103.478C350.943 103.371 350.759 107.927 350.245 111.62H348.306C348.248 111.989 348.199 112.347 348.151 112.687L345.611 127.13H348.519L345.611 143.609H359.095C359.095 143.609 360.559 135.379 362.003 127.13H359.095C360.249 120.664 361.402 114.189 361.858 111.62H363.796L364.01 110.457C366.355 101.054 362.42 92.437 351.679 93.0089Z" fill="white" fill-opacity="0.8"/>
<path d="M372.831 111.62H370.892C369.03 115.958 368.222 120.675 368.536 125.385C368.536 125.986 368.536 126.558 368.536 127.13H371.444C371.619 148.611 398.887 148.019 410.218 139.441L406.826 130.62C400.321 135.621 386.111 137.405 385.102 127.13H382.194C382.102 126.228 382.102 125.318 382.194 124.416C391.064 124.086 406.331 122.293 410.79 111.62H412.729C413.594 109.498 414.026 107.224 413.999 104.932C411.537 84.7597 381.613 91.235 372.831 111.62ZM399.371 111.62H397.433C393.836 114.635 387.216 115.595 383.271 115.595C383.565 114.236 383.981 112.906 384.511 111.62H386.45C388.389 106.948 392.004 102.702 397.52 102.702C400.04 102.702 401.882 104.059 401.882 106.58C401.873 107.555 401.642 108.516 401.207 109.389C400.772 110.262 400.144 111.025 399.371 111.62Z" fill="url(#paint8_linear_56_170)"/>
<path d="M372.831 111.62H370.892C369.03 115.958 368.222 120.675 368.536 125.385C368.536 125.986 368.536 126.558 368.536 127.13H371.444C371.619 148.611 398.887 148.019 410.218 139.441L406.826 130.62C400.321 135.621 386.111 137.405 385.102 127.13H382.194C382.102 126.228 382.102 125.318 382.194 124.416C391.064 124.086 406.331 122.293 410.79 111.62H412.729C413.594 109.498 414.026 107.224 413.999 104.932C411.537 84.7597 381.613 91.235 372.831 111.62ZM399.371 111.62H397.433C393.836 114.635 387.216 115.595 383.271 115.595C383.565 114.236 383.981 112.906 384.511 111.62H386.45C388.389 106.948 392.004 102.702 397.52 102.702C400.04 102.702 401.882 104.059 401.882 106.58C401.873 107.555 401.642 108.516 401.207 109.389C400.772 110.262 400.144 111.025 399.371 111.62Z" fill="white" fill-opacity="0.8"/>
<path d="M111.64 111.62L117.311 79.1569L74 78.1778C75.4254 79.973 77.0516 81.5991 78.8467 83.0246C87.5709 89.9263 97.8363 90.0329 102.111 89.81C100.646 96.9818 100.092 104.31 100.463 111.62H98.5246C98.6836 116.817 99.1789 121.997 100.008 127.13H102.916C103.564 131.164 104.431 135.161 105.514 139.101C105.972 140.749 106.457 142.365 106.968 143.948L109.876 127.12H106.968L109.672 111.611L111.64 111.62Z" fill="url(#paint9_linear_56_170)"/>
<path d="M111.64 111.62L117.311 79.1569L74 78.1778C75.4254 79.973 77.0516 81.5991 78.8467 83.0246C87.5709 89.9263 97.8363 90.0329 102.111 89.81C100.646 96.9818 100.092 104.31 100.463 111.62H98.5246C98.6836 116.817 99.1789 121.997 100.008 127.13H102.916C103.564 131.164 104.431 135.161 105.514 139.101C105.972 140.749 106.457 142.365 106.968 143.948L109.876 127.12H106.968L109.672 111.611L111.64 111.62Z" fill="white" fill-opacity="0.8"/>
</g>
<defs>
<filter id="filter0_ddif_56_170" x="0.788483" y="0.169495" width="486.423" height="218.042" filterUnits="userSpaceOnUse" color-interpolation-filters="sRGB">
<feFlood flood-opacity="0" result="BackgroundImageFix"/>
<feColorMatrix in="SourceAlpha" type="matrix" values="0 0 0 0 0 0 0 0 0 0 0 0 0 0 0 0 0 0 127 0" result="hardAlpha"/>
<feOffset/>
<feGaussianBlur stdDeviation="36.6058"/>
<feColorMatrix type="matrix" values="0 0 0 0 0.192157 0 0 0 0 0.854902 0 0 0 0 1 0 0 0 0.5 0"/>
<feBlend mode="normal" in2="BackgroundImageFix" result="effect1_dropShadow_56_170"/>
<feColorMatrix in="SourceAlpha" type="matrix" values="0 0 0 0 0 0 0 0 0 0 0 0 0 0 0 0 0 0 127 0" result="hardAlpha"/>
<feOffset/>
<feGaussianBlur stdDeviation="9.45563"/>
<feColorMatrix type="matrix" values="0 0 0 0 0.192157 0 0 0 0 0.854902 0 0 0 0 1 0 0 0 0.77 0"/>
<feBlend mode="normal" in2="effect1_dropShadow_56_170" result="effect2_dropShadow_56_170"/>
<feBlend mode="normal" in="SourceGraphic" in2="effect2_dropShadow_56_170" result="shape"/>
<feColorMatrix in="SourceAlpha" type="matrix" values="0 0 0 0 0 0 0 0 0 0 0 0 0 0 0 0 0 0 127 0" result="hardAlpha"/>
<feOffset/>
<feGaussianBlur stdDeviation="3.66058"/>
<feComposite in2="hardAlpha" operator="arithmetic" k2="-1" k3="1"/>
<feColorMatrix type="matrix" values="0 0 0 0 0.192157 0 0 0 0 0.854588 0 0 0 0 1 0 0 0 0.5 0"/>
<feBlend mode="normal" in2="shape" result="effect3_innerShadow_56_170"/>
<feGaussianBlur stdDeviation="0.675402" result="effect4_foregroundBlur_56_170"/>
</filter>
<linearGradient id="paint0_linear_56_170" x1="140.926" y1="79.0366" x2="140.926" y2="143.609" gradientUnits="userSpaceOnUse">
<stop stop-color="white"/>
<stop offset="1" stop-color="white" stop-opacity="0"/>
</linearGradient>
<linearGradient id="paint1_linear_56_170" x1="217.711" y1="93.1433" x2="217.711" y2="144.932" gradientUnits="userSpaceOnUse">
<stop stop-color="white"/>
<stop offset="1" stop-color="white" stop-opacity="0"/>
</linearGradient>
<linearGradient id="paint2_linear_56_170" x1="264.076" y1="76.2294" x2="264.076" y2="143.609" gradientUnits="userSpaceOnUse">
<stop stop-color="white"/>
<stop offset="1" stop-color="white" stop-opacity="0"/>
</linearGradient>
<linearGradient id="paint3_linear_56_170" x1="303.881" y1="94.4532" x2="303.881" y2="143.609" gradientUnits="userSpaceOnUse">
<stop stop-color="white"/>
<stop offset="1" stop-color="white" stop-opacity="0"/>
</linearGradient>
<linearGradient id="paint4_linear_56_170" x1="310.138" y1="73.381" x2="310.138" y2="87.464" gradientUnits="userSpaceOnUse">
<stop stop-color="white"/>
<stop offset="1" stop-color="white" stop-opacity="0"/>
</linearGradient>
<linearGradient id="paint5_linear_56_170" x1="182.712" y1="94.4532" x2="182.712" y2="143.609" gradientUnits="userSpaceOnUse">
<stop stop-color="white"/>
<stop offset="1" stop-color="white" stop-opacity="0"/>
</linearGradient>
<linearGradient id="paint6_linear_56_170" x1="188.969" y1="73.381" x2="188.969" y2="87.464" gradientUnits="userSpaceOnUse">
<stop stop-color="white"/>
<stop offset="1" stop-color="white" stop-opacity="0"/>
</linearGradient>
<linearGradient id="paint7_linear_56_170" x1="341.251" y1="92.9819" x2="341.251" y2="143.609" gradientUnits="userSpaceOnUse">
<stop stop-color="white"/>
<stop offset="1" stop-color="white" stop-opacity="0"/>
</linearGradient>
<linearGradient id="paint8_linear_56_170" x1="391.235" y1="92.6731" x2="391.235" y2="145" gradientUnits="userSpaceOnUse">
<stop stop-color="white"/>
<stop offset="1" stop-color="white" stop-opacity="0"/>
</linearGradient>
<linearGradient id="paint9_linear_56_170" x1="95.6553" y1="78.1778" x2="95.6553" y2="143.948" gradientUnits="userSpaceOnUse">
<stop stop-color="white"/>
<stop offset="1" stop-color="white" stop-opacity="0"/>
</linearGradient>
</defs>
</svg>
