<svg width="51" height="49" viewBox="0 0 51 49" fill="none" xmlns="http://www.w3.org/2000/svg">
<path fill-rule="evenodd" clip-rule="evenodd" d="M27.1662 33.8516H16.9963C14.1924 33.8516 11.9147 31.8976 11.9147 29.4644V16.6285C11.9147 14.1953 14.1924 12.2229 16.9963 12.2229H34.5389C37.3428 12.2229 39.6206 14.1953 39.6206 16.6285V29.4644C39.6206 31.8976 37.3495 33.8516 34.5389 33.8516H34.2925V37.7841C34.2925 37.7841 29.0444 34.4845 28.5848 34.1711L28.5721 34.1624C28.1252 33.8576 28.1164 33.8516 27.1662 33.8516ZM35.0272 22.7613C35.0272 21.6451 34.0986 20.7433 32.9493 20.7433C31.7999 20.7433 30.8713 21.6451 30.8713 22.7613C30.8713 23.8774 31.7999 24.7792 32.9493 24.7792C34.0986 24.7792 35.0272 23.8774 35.0272 22.7613ZM25.6583 20.7433C26.8076 20.7433 27.7362 21.6451 27.7362 22.7613C27.7362 23.8774 26.8076 24.7792 25.6583 24.7792C24.5089 24.7792 23.5803 23.8774 23.5803 22.7613C23.5803 21.6451 24.5089 20.7433 25.6583 20.7433ZM20.4452 22.7613C20.4452 21.6451 19.5166 20.7433 18.3672 20.7433C17.2179 20.7433 16.2893 21.6451 16.2893 22.7613C16.2893 23.8774 17.2179 24.7792 18.3672 24.7792C19.5166 24.7792 20.4452 23.8774 20.4452 22.7613Z" fill="black"/>
<mask id="mask0_270_56" style="mask-type:alpha" maskUnits="userSpaceOnUse" x="11" y="12" width="29" height="26">
<path fill-rule="evenodd" clip-rule="evenodd" d="M27.1662 33.8516H16.9963C14.1924 33.8516 11.9147 31.8976 11.9147 29.4644V16.6285C11.9147 14.1953 14.1924 12.2229 16.9963 12.2229H34.5389C37.3428 12.2229 39.6206 14.1953 39.6206 16.6285V29.4644C39.6206 31.8976 37.3495 33.8516 34.5389 33.8516H34.2925V37.7841C34.2925 37.7841 29.0444 34.4845 28.5848 34.1711L28.5721 34.1624C28.1252 33.8576 28.1164 33.8516 27.1662 33.8516ZM35.0272 22.7613C35.0272 21.6451 34.0986 20.7433 32.9493 20.7433C31.7999 20.7433 30.8713 21.6451 30.8713 22.7613C30.8713 23.8774 31.7999 24.7792 32.9493 24.7792C34.0986 24.7792 35.0272 23.8774 35.0272 22.7613ZM25.6583 20.7433C26.8076 20.7433 27.7362 21.6451 27.7362 22.7613C27.7362 23.8774 26.8076 24.7792 25.6583 24.7792C24.5089 24.7792 23.5803 23.8774 23.5803 22.7613C23.5803 21.6451 24.5089 20.7433 25.6583 20.7433ZM20.4452 22.7613C20.4452 21.6451 19.5166 20.7433 18.3672 20.7433C17.2179 20.7433 16.2893 21.6451 16.2893 22.7613C16.2893 23.8774 17.2179 24.7792 18.3672 24.7792C19.5166 24.7792 20.4452 23.8774 20.4452 22.7613Z" fill="white"/>
</mask>
<g mask="url(#mask0_270_56)">
<rect x="-436.921" y="-94.0576" width="831.177" height="807.195" fill="white"/>
</g>
</svg>
