<svg width="51" height="49" viewBox="0 0 51 49" fill="none" xmlns="http://www.w3.org/2000/svg">
<path d="M33.6642 30.3343C32.6802 30.3343 31.7616 30.6554 31.1056 31.2976L21.725 25.9672C21.7907 25.646 21.8564 25.3889 21.8564 25.0678C21.8564 24.7466 21.7907 24.4895 21.725 24.1684L30.9749 18.9024C31.6962 19.5446 32.6149 19.9298 33.6642 19.9298C35.8288 19.9298 37.6001 18.1956 37.6001 16.0763C37.6001 13.9571 35.8288 12.2229 33.6642 12.2229C31.4995 12.2229 29.7283 13.9571 29.7283 16.0764C29.7283 16.3975 29.7936 16.6547 29.8596 16.9758L20.6101 22.2417C19.8884 21.5994 18.9701 21.2144 17.9205 21.2144C15.7558 21.2144 14.0502 22.9486 14.0502 25.0678C14.0502 27.1871 15.8211 28.9213 17.9861 28.9213C19.0357 28.9213 19.954 28.5361 20.6757 27.8939L29.9909 33.2244C29.9249 33.4809 29.8596 33.7381 29.8596 34.0592C29.8596 36.1146 31.5649 37.7841 33.6642 37.7841C35.7634 37.7841 37.4687 36.1146 37.4687 34.0592C37.4688 32.0038 35.7635 30.3343 33.6642 30.3343Z" fill="white"/>
<mask id="mask0_288_35" style="mask-type:alpha" maskUnits="userSpaceOnUse" x="14" y="12" width="24" height="26">
<path d="M33.6642 30.3343C32.6802 30.3343 31.7616 30.6554 31.1056 31.2976L21.725 25.9672C21.7907 25.646 21.8564 25.3889 21.8564 25.0678C21.8564 24.7466 21.7907 24.4895 21.725 24.1684L30.9749 18.9024C31.6962 19.5446 32.6149 19.9298 33.6642 19.9298C35.8288 19.9298 37.6001 18.1956 37.6001 16.0763C37.6001 13.9571 35.8288 12.2229 33.6642 12.2229C31.4995 12.2229 29.7283 13.9571 29.7283 16.0764C29.7283 16.3975 29.7936 16.6547 29.8596 16.9758L20.6101 22.2417C19.8884 21.5994 18.9701 21.2144 17.9205 21.2144C15.7558 21.2144 14.0502 22.9486 14.0502 25.0678C14.0502 27.1871 15.8211 28.9213 17.9861 28.9213C19.0357 28.9213 19.954 28.5361 20.6757 27.8939L29.9909 33.2244C29.9249 33.4809 29.8596 33.7381 29.8596 34.0592C29.8596 36.1146 31.5649 37.7841 33.6642 37.7841C35.7634 37.7841 37.4687 36.1146 37.4687 34.0592C37.4688 32.0038 35.7635 30.3343 33.6642 30.3343Z" fill="white"/>
</mask>
<g mask="url(#mask0_288_35)">
</g>
</svg>
